<svg xmlns="http://www.w3.org/2000/svg" viewBox="0 0 138.16 28.09">
    <title>cat_lying</title>
    <g id="Layer_2" data-name="Layer 2">
        <g id="date">
            <path
                d="M0,28.07a19.15,19.15,0,0,1,6.3-4.35,1.21,1.21,0,0,0,.86-1.28,10.29,10.29,0,0,1,1.2-4.81,1.53,1.53,0,0,0-.1-1.25A21.86,21.86,0,0,1,5.2,8.86c0-.13,0-.25,0-.51l7.5,3.12.28.13a4.08,4.08,0,0,0,3.44.32,20.09,20.09,0,0,1,4.45-.45l.12-.58L21.06,12a32.38,32.38,0,0,0,4.88.54A11.14,11.14,0,0,0,32.1,10c1.26-.93,2.49-1.91,3.66-2.94A27.92,27.92,0,0,1,55.46,0,43.13,43.13,0,0,1,70.24,2.7,33.21,33.21,0,0,1,85,14.39c1.26,1.7,2.56,3.36,3.89,5a6.17,6.17,0,0,0,5.17,2.33c13.35-.07,26.71,0,40.06,0a7.34,7.34,0,0,1,1.62.14,3.15,3.15,0,0,1-.23,6.18,9.75,9.75,0,0,1-1.53.08L.85,28.07Z" />
        </g>
    </g>
</svg>