<svg xmlns="http://www.w3.org/2000/svg" viewBox="0 0 24 24"><defs><style>.cls-1{fill:none;}</style></defs><title>alarm</title><g id="date"><path class="cls-1" d="M2.67,22.18V2.33H22.52V22.18Zm5-15.37V19.49a1.69,1.69,0,0,0,0,.23.82.82,0,0,0,1.6.21,1.61,1.61,0,0,0,0-.44V6.81L9.48,7,12,9.45a.82.82,0,0,0,.73.29.77.77,0,0,0,.68-.54.81.81,0,0,0-.22-.89l-4-4a.85.85,0,0,0-1.34,0L4.54,7.55l-.81.81A.82.82,0,1,0,4.94,9.48L7.45,7ZM15.9,17.66l-.17-.16-1.62-1.62c-.31-.31-.61-.62-.93-.92a.82.82,0,0,0-1.38.4.84.84,0,0,0,.27.82l4,4a.85.85,0,0,0,1.39,0l3.92-3.91.17-.18a.81.81,0,0,0,0-1,.82.82,0,0,0-1.26,0L17.73,17.5a1.39,1.39,0,0,1-.17.16V4.74a.84.84,0,0,0-.7-.75.82.82,0,0,0-.9.54,1.32,1.32,0,0,0-.05.44q0,6.21,0,12.42Z"/><path d="M7.63,6.81,7.45,7,4.94,9.48A.82.82,0,1,1,3.73,8.36l.81-.81L7.79,4.31a.85.85,0,0,1,1.34,0l4,4a.81.81,0,0,1,.22.89.77.77,0,0,1-.68.54A.82.82,0,0,1,12,9.45L9.48,7l-.19-.18V19.49a1.61,1.61,0,0,1,0,.44.82.82,0,0,1-1.6-.21,1.69,1.69,0,0,1,0-.23V6.81Z"/><path d="M15.9,17.66v-.27q0-6.21,0-12.42A1.32,1.32,0,0,1,16,4.53a.82.82,0,0,1,.9-.54.84.84,0,0,1,.7.75V17.66a1.39,1.39,0,0,0,.17-.16L20.26,15a.82.82,0,0,1,1.26,0,.81.81,0,0,1,0,1l-.17.18-3.92,3.91a.85.85,0,0,1-1.39,0l-4-4a.84.84,0,0,1-.27-.82.82.82,0,0,1,1.38-.4c.32.3.62.61.93.92l1.62,1.62Z"/></g></svg>