<svg xmlns="http://www.w3.org/2000/svg" viewBox="0 0 24 24">
    <title>deadline</title>
    <g id="date">
        <path
            d="M13.6,3.16a.67.67,0,0,1,.39.66,3.69,3.69,0,0,0,.56,1.67,21.86,21.86,0,0,0,1.66,2.37,23.21,23.21,0,0,1,1.93,2.8,7.56,7.56,0,0,1,1,2.64,6.33,6.33,0,0,1-.62,3.76,6.64,6.64,0,0,1-4.79,3.67c-.27.06-.54.08-.82.12H12a9.23,9.23,0,0,1-1.15-.2,6.6,6.6,0,0,1-4.95-5A7.68,7.68,0,0,1,6,11.83a13.85,13.85,0,0,1,2.9-5.76.53.53,0,0,1,.62-.22c.24.08.32.26.36.57a11.58,11.58,0,0,0,.21,1.15c0,.14.12.31.3.32a.4.4,0,0,0,.37-.25,10.32,10.32,0,0,0,.42-1c.27-.71.5-1.44.78-2.16a2.67,2.67,0,0,1,.65-1,1.64,1.64,0,0,1,.68-.38ZM9,7.68l0,.05a13.29,13.29,0,0,0-1.87,4,7.86,7.86,0,0,0-.23,3.41,5.72,5.72,0,0,0,5.37,4.65A5.57,5.57,0,0,0,17,17.56,5.37,5.37,0,0,0,18,13.15a6.23,6.23,0,0,0-1-2.38c-.62-.92-1.29-1.81-1.94-2.71A15.37,15.37,0,0,1,13.44,5.6c-.15-.32-.27-.66-.41-1l-.09.16c-.11.29-.24.57-.34.85-.23.64-.45,1.29-.69,1.93a2.7,2.7,0,0,1-.65,1,1.23,1.23,0,0,1-1.93-.18A5,5,0,0,1,9,7.68Z" />
        <path
            d="M17.09,14.11a4.67,4.67,0,1,1-4.66-4.66A4.68,4.68,0,0,1,17.09,14.11Zm-4.66-3.62a3.63,3.63,0,1,0,3.62,3.63A3.62,3.62,0,0,0,12.43,10.49Z" />
        <path
            d="M12.94,13.6h1.52a.54.54,0,0,1,.49.26.51.51,0,0,1-.43.77H12.4a.49.49,0,0,1-.49-.49q0-1.07,0-2.13a.52.52,0,0,1,.52-.49.52.52,0,0,1,.51.53C13,12.56,12.94,13.06,12.94,13.6Z" />
    </g>
</svg>