<svg xmlns="http://www.w3.org/2000/svg" viewBox="0 0 24 24">
    <title>draft</title>
    <g id="date">
        <path
            d="M6,12.14V5.93a1.9,1.9,0,0,1,2-2H9.66c.48,0,.77.23.77.62s-.29.64-.76.64H8a.64.64,0,0,0-.7.7V18.41A.64.64,0,0,0,8,19.1H16.7a.63.63,0,0,0,.7-.7V16.64a.64.64,0,1,1,1.27,0v1.82a1.89,1.89,0,0,1-1.92,1.92H7.92A1.89,1.89,0,0,1,6,18.45Z" />
        <path
            d="M17.4,10.24H14.33a3,3,0,0,1-.6-.08,1.87,1.87,0,0,1-1.39-1.77c0-1.27,0-2.55,0-3.83a.59.59,0,0,1,.4-.6.64.64,0,0,1,.72.17l3.62,3.62c.45.45.89.9,1.34,1.34a.78.78,0,0,1,.25.59v3.65A.65.65,0,0,1,18,14a.64.64,0,0,1-.63-.71V10.24ZM16.45,9,13.61,6.13a.1.1,0,0,0,0,0V8.36a.63.63,0,0,0,.63.61h2.22Z" />
    </g>
</svg>