<svg xmlns="http://www.w3.org/2000/svg" viewBox="0 0 24 24">
    <title>modify</title>
    <g id="date">
        <path
            d="M16.59,20.44H6.28l-.06,0a1.5,1.5,0,0,1-.94-.55A1.92,1.92,0,0,1,5,19.11V4.74l0,0A1.49,1.49,0,0,1,6.49,3.41H15a1.38,1.38,0,0,1,1,.36c.49.46,1,.94,1.43,1.4a1.7,1.7,0,0,1,.53,1.28c0,1.2,0,2.4,0,3.61v.21l.16-.15c.5-.49,1-1,1.51-1.47a1.34,1.34,0,0,1,1.46-.2A1.43,1.43,0,0,1,22,9.59,1.51,1.51,0,0,1,21.47,11c-1.14,1.13-2.27,2.27-3.41,3.41a.4.4,0,0,0-.14.33c0,1.39,0,2.78,0,4.17a1.45,1.45,0,0,1-.62,1.27A4.09,4.09,0,0,1,16.59,20.44Zm-2.66-16H6.52A.51.51,0,0,0,6,5V18.85c0,.41.18.59.6.59h9.78c.41,0,.59-.18.59-.59,0-1.06,0-2.11,0-3.16v-.14a1.74,1.74,0,0,1-.34.16l-1.93.65a.53.53,0,0,1-.6-.09.52.52,0,0,1-.1-.6c.22-.64.42-1.28.65-1.92a1,1,0,0,1,.23-.37c.65-.67,1.32-1.33,2-2a.33.33,0,0,0,.12-.28c0-1.17,0-2.35,0-3.52V7.4H14.51a.51.51,0,0,1-.58-.58V4.41Zm2.62,8.67.66.66,2.35-2.34-.66-.66ZM14.94,6.4h2A.5.5,0,0,0,16.77,6l-1.4-1.39a.46.46,0,0,0-.43-.15ZM19.63,10l.72.71c.15-.16.32-.32.48-.5a.49.49,0,0,0,0-.71.49.49,0,0,0-.7,0ZM15.8,13.82c-.43.33-.4.86-.59,1.29.43-.2,1-.16,1.29-.59Z" />
        <path d="M10.94,8.4h3.44a.5.5,0,1,1,.08,1H7.58c-.4,0-.63-.18-.63-.5s.23-.5.63-.5Z" />
        <path d="M9.94,10.4H12.4a.49.49,0,0,1,.49.69.48.48,0,0,1-.47.3H7.5a.5.5,0,1,1,0-1Z" />
        <path
            d="M9.92,13.39H7.48A.49.49,0,0,1,7,13.08a.48.48,0,0,1,.1-.54.58.58,0,0,1,.44-.15h4.84a.5.5,0,1,1,0,1Z" />
        <path d="M9.94,14.39H12.4a.49.49,0,0,1,.49.69.48.48,0,0,1-.47.3H7.5a.5.5,0,1,1,0-1Z" />
        <path d="M12.93,18.45H11.5a.5.5,0,1,1,0-1h2.86a.5.5,0,1,1,0,1Z" />
    </g>
</svg>