<svg xmlns="http://www.w3.org/2000/svg" viewBox="0 0 20.5 20.5"><defs><style>.cls-1{fill:none;}</style></defs><title>sort_1</title><g id="Layer_2"><g id="date"><path class="cls-1" d="M0,20.5V0H20.5V20.5ZM5.13,4.62v13.1a1.92,1.92,0,0,0,0,.24.85.85,0,0,0,1.65.21,1.36,1.36,0,0,0,.06-.45V4.62L7,4.81,9.58,7.36a.86.86,0,0,0,.75.29A.79.79,0,0,0,11,7.09a.82.82,0,0,0-.23-.92L6.67,2A.87.87,0,0,0,5.29,2L1.93,5.39l-.83.83a.84.84,0,0,0,0,1.15.85.85,0,0,0,1.28,0L4.94,4.8Zm8.54,11.21a1.59,1.59,0,0,1-.18-.17L11.82,14c-.32-.33-.64-.65-1-1A.85.85,0,1,0,9.71,14.3l4.09,4.09a.89.89,0,0,0,1.44,0l4-4a1.54,1.54,0,0,0,.17-.19.83.83,0,0,0,0-1.05.85.85,0,0,0-1.3,0l-2.6,2.59-.18.17V2.72a1.93,1.93,0,0,0,0-.24.85.85,0,0,0-1.65-.21,1.8,1.8,0,0,0-.05.46c0,4.27,0,8.55,0,12.82Z"/><path d="M5.13,4.62l-.19.18L2.34,7.39a.85.85,0,0,1-1.28,0,.84.84,0,0,1,0-1.15l.83-.83L5.29,2A.87.87,0,0,1,6.67,2l4.14,4.14a.82.82,0,0,1,.23.92.79.79,0,0,1-.71.56.86.86,0,0,1-.75-.29L7,4.81l-.19-.19v13.1a1.36,1.36,0,0,1-.06.45A.85.85,0,0,1,5.13,18a1.92,1.92,0,0,1,0-.24V4.62Z"/><path d="M13.67,15.83v-.28c0-4.27,0-8.55,0-12.82a1.8,1.8,0,0,1,.05-.46.85.85,0,0,1,1.65.21,1.93,1.93,0,0,1,0,.24V15.83l.18-.17,2.6-2.59a.85.85,0,0,1,1.3,0,.83.83,0,0,1,0,1.05,1.54,1.54,0,0,1-.17.19l-4,4a.89.89,0,0,1-1.44,0L9.71,14.3A.85.85,0,1,1,10.85,13c.33.31.65.63,1,1l1.67,1.66A1.59,1.59,0,0,0,13.67,15.83Z"/></g></g></svg>