<svg id="Layer_1" data-name="Layer 1" xmlns="http://www.w3.org/2000/svg" viewBox="0 0 24 24"><defs><style>.cls-1{stroke:#000;stroke-miterlimit:10;stroke-width:0.4px;}</style></defs><title>alarm</title><path class="cls-1" d="M12,1a.86.86,0,0,1,.63,1c0,.2,0,.4,0,.59.47.09.92.15,1.37.25a8.63,8.63,0,0,1,3.14,1.4,8.94,8.94,0,0,1,3.39,4.39A9.15,9.15,0,0,1,20,16.16a.78.78,0,1,1-1.38-.71,8,8,0,0,0,.79-2.22,7.52,7.52,0,0,0-.91-5.31,7.4,7.4,0,0,0-3.56-3.16,7.37,7.37,0,0,0-4.17-.54A7.57,7.57,0,0,0,6.54,6.33,7.6,7.6,0,0,0,5,14.92a7.64,7.64,0,0,0,7.86,4.43A7.63,7.63,0,0,0,16.33,18a.8.8,0,0,1,1.3.3c.3.49.6,1,.89,1.49a.77.77,0,0,1-.39,1.14.74.74,0,0,1-.86-.23c-.12-.17-.23-.35-.33-.52l-.29-.49a9.34,9.34,0,0,1-9.5,0c-.16.27-.31.55-.5.82a1.21,1.21,0,0,1-.39.39.75.75,0,0,1-.88-.15.76.76,0,0,1-.14-.89c.16-.3.34-.59.51-.88a1.51,1.51,0,0,0,.12-.2C3,16,2,12.74,3.16,9s4-5.81,7.92-6.39c0-.18,0-.38,0-.59a.86.86,0,0,1,.62-1Z"/><path class="cls-1" d="M11.08,9.28V6.83a.75.75,0,0,1,.44-.71.73.73,0,0,1,.79.06.82.82,0,0,1,.33.71c0,1.45,0,2.89,0,4.33a.5.5,0,0,0,.17.39l1.76,1.76a.78.78,0,0,1-1,1.22l-.19-.16c-.67-.67-1.33-1.35-2-2a1.05,1.05,0,0,1-.33-.78C11.08,10.85,11.08,10.07,11.08,9.28Z"/><path class="cls-1" d="M6.88,2.31a.74.74,0,0,1-.27.59L4.47,4.68a.76.76,0,0,1-1.09-.12.75.75,0,0,1,.1-1.06c.71-.61,1.43-1.21,2.15-1.8a.73.73,0,0,1,.82-.08A.75.75,0,0,1,6.88,2.31Z"/><path class="cls-1" d="M16.92,2.31a.73.73,0,0,1,.42-.69.76.76,0,0,1,.86.1l1.23,1c.29.25.6.49.89.75a.73.73,0,0,1,.23.81.76.76,0,0,1-.65.54.73.73,0,0,1-.57-.16L17.18,2.9A.7.7,0,0,1,16.92,2.31Z"/></svg>