<svg xmlns="http://www.w3.org/2000/svg" viewBox="0 0 377.59 408.89"><title>alert</title><g id="Layer_2" data-name="Layer 2"><g id="Layer_1-2" data-name="Layer 1"><path d="M191.39,0c9.54,3.25,13.47,10,12.82,19.93-.27,4.08,0,8.2,0,12.14,9.62,1.7,18.94,3,28.1,5a177.49,177.49,0,0,1,64.4,28.67c32.26,22.81,56.06,52.5,69.28,89.86,18.8,53.08,14.73,104.79-11.44,154.68-4.41,8.4-13.73,11.34-21.72,7.2-7.74-4-10.82-13.28-6.57-21.6,7.41-14.53,13.32-29.54,16.32-45.61,7.19-38.54,1.07-74.87-18.62-108.75C306.72,112,282.19,90.34,250.86,76.8a151.86,151.86,0,0,0-85.43-11q-50.09,7.88-86.18,43.3a153,153,0,0,0-42.72,76.58c-7.78,34.23-4.31,67.38,10.17,99.3a152.87,152.87,0,0,0,66.79,72.25,153,153,0,0,0,94.28,18.4,156.22,156.22,0,0,0,72.09-27.87c10.89-7.63,19.76-5.48,26.62,6,6,10.16,12.23,20.25,18.11,30.51,5.32,9.27,1.65,19.74-7.88,23.39A15.28,15.28,0,0,1,299.09,403a126,126,0,0,1-6.87-10.73c-2-3.27-3.93-6.6-5.94-10-64.82,35.51-129.42,35.51-194.53.05-3.29,5.49-6.42,11.33-10.16,16.73a26.47,26.47,0,0,1-8,8c-5.88,3.38-13.33,1.78-18-2.91a15.56,15.56,0,0,1-2.89-18.39c3.25-6.1,7-11.94,10.47-17.9l2.47-4.23C7.1,307.48-14.74,240.27,10.13,162.82S92.08,44,172.23,32c0-3.66.23-7.9,0-12.11C171.54,10,175.46,3.25,185,0Z"/><path d="M172.23,169.45c0-16.76,0-33.52,0-50.28,0-6.53,3-11.53,8.93-14.45A15.07,15.07,0,0,1,197.43,106c5,3.51,6.77,8.57,6.76,14.54-.05,29.53,0,59.06-.11,88.59a10.09,10.09,0,0,0,3.37,8c12.14,11.93,24.1,24,36.18,36.06,4.84,4.81,6.85,10.42,4.89,17.05a15.84,15.84,0,0,1-24.58,8.09,36.12,36.12,0,0,1-3.85-3.47c-13.75-13.71-27.42-27.51-41.25-41.14a20.8,20.8,0,0,1-6.68-16C172.37,201.65,172.23,185.55,172.23,169.45Z"/><path d="M86.18,26.74a14.81,14.81,0,0,1-5.42,12C66.22,51,51.69,63.21,37,75.21a15.65,15.65,0,0,1-22.41-2.35A15.5,15.5,0,0,1,16.5,51C31,38.56,45.79,26.35,60.6,14.23c5.08-4.15,11-4.53,16.86-1.62S86,20.35,86.18,26.74Z"/><path d="M291.83,26.71c.14-6.41,3-11.29,8.73-14.11,6.17-3,12.21-2.24,17.53,2.1,8.45,6.88,16.77,13.93,25.13,20.91,6.12,5.12,12.36,10.1,18.31,15.4,5,4.45,6.72,10.18,4.66,16.64s-6.7,10-13.33,11a14.26,14.26,0,0,1-11.55-3.24Q319.17,57.18,297.2,38.69A14.71,14.71,0,0,1,291.83,26.71Z"/></g></g></svg>