<svg xmlns="http://www.w3.org/2000/svg" viewBox="0 0 384 384"><defs><style>.cls-1{fill:none;}</style></defs><title>sort</title><g id="Layer_2" data-name="Layer 2"><g id="date"><path class="cls-1" d="M0,384V0H384V384ZM96,86.61V332c0,1.5,0,3,0,4.49a16,16,0,0,0,13.32,14.62c8,1.12,15.4-3.17,17.68-10.61a29,29,0,0,0,1-8.48q.07-120.15,0-240.31v-5c1.74,1.66,2.73,2.57,3.68,3.52Q155.65,114,179.49,137.8c3.94,3.94,8.46,6.27,14.08,5.56,6.5-.82,11.16-4.36,13.32-10.58,2.27-6.52.57-12.27-4.29-17.12L124.89,38.11c-8.48-8.45-17.3-8.41-25.83.1Q67.62,69.56,36.2,100.93c-5.21,5.21-10.52,10.33-15.62,15.65A15.71,15.71,0,0,0,19.77,138c6.22,7.41,16.83,7.64,24.16.36Q68.26,114.22,92.49,90C93.43,89,94.42,88.12,96,86.61ZM256,296.47c-1.56-1.43-2.47-2.22-3.32-3.07l-31.31-31.22c-6-6-11.89-12.13-18.08-18a15.87,15.87,0,0,0-26.59,7.85c-1.5,6.28.72,11.43,5.21,15.9q38.39,38.19,76.67,76.47c9.28,9.27,17.69,9.31,26.89.13l75.85-75.7a41.27,41.27,0,0,0,3.32-3.56,15.78,15.78,0,0,0,0-19.73c-6.12-7.74-17-8.18-24.36-.83Q315.76,269,291.42,293.44c-.92.91-1.9,1.75-3.35,3.07V51c0-1.5.05-3-.07-4.49a16,16,0,0,0-13.54-14.41c-7.9-1-15.09,3.17-17.39,10.48a28.34,28.34,0,0,0-1,8.48q-.08,120.15,0,240.3Z"/><path d="M96,86.61C94.42,88.12,93.43,89,92.49,90q-24.28,24.21-48.56,48.41c-7.33,7.28-17.94,7-24.16-.36a15.71,15.71,0,0,1,.81-21.43c5.1-5.32,10.41-10.44,15.62-15.65Q67.63,69.57,99.06,38.21c8.53-8.51,17.35-8.55,25.83-.1l77.71,77.55c4.86,4.85,6.56,10.6,4.29,17.12-2.16,6.22-6.82,9.76-13.32,10.58-5.62.71-10.14-1.62-14.08-5.56q-23.79-23.9-47.72-47.67c-1-.95-1.94-1.86-3.68-3.52v5q0,120.15,0,240.31a29,29,0,0,1-1,8.48c-2.28,7.44-9.72,11.73-17.68,10.61a16,16,0,0,1-13.32-14.62c-.1-1.49,0-3,0-4.49V86.61Z"/><path d="M256,296.47v-5.09q0-120.15,0-240.3a28.34,28.34,0,0,1,1-8.48c2.3-7.31,9.49-11.47,17.39-10.48A16,16,0,0,1,288,46.53c.12,1.49.07,3,.07,4.49V296.51c1.45-1.32,2.43-2.16,3.35-3.07q24.4-24.35,48.82-48.68c7.4-7.35,18.24-6.91,24.36.83a15.78,15.78,0,0,1,0,19.73,41.27,41.27,0,0,1-3.32,3.56l-75.85,75.7c-9.2,9.18-17.61,9.14-26.89-.13Q220.26,306.21,181.91,268c-4.49-4.47-6.71-9.62-5.21-15.9a15.87,15.87,0,0,1,26.59-7.85c6.19,5.82,12.07,12,18.08,18l31.31,31.22C253.53,294.25,254.44,295,256,296.47Z"/></g></g></svg>