<svg xmlns="http://www.w3.org/2000/svg" viewBox="0 0 296.49 388"><defs><style>.cls-1{stroke:#000;stroke-miterlimit:10;stroke-width:4px;}</style></defs><title>sublist</title><g id="Layer_2" data-name="Layer 2"><g id="Layer_1-2" data-name="Layer 1"><path class="cls-1" d="M77,2H219.48a8.42,8.42,0,0,0,1.3.67c8.85,2.91,13.56,9.14,13.83,18.31,0,1.08.15,2.16.24,3.52h16.31c25.72,0,43.32,17.59,43.32,43.31q0,41.07,0,82.12-.1,96.18-.22,192.36c0,20.37-11,36.16-29,41.8-2.23.7-4.49,1.28-6.74,1.91H38a6.28,6.28,0,0,0-1.33-.59C15.92,381.47,2,365.29,2,344.48Q2,205.76,2.27,67c0-25,18-42.47,43-42.52,5.47,0,11,0,15.92,0,1.07-4.39,1.62-8.49,3.1-12.22C66.56,6.68,71.73,4.17,77,2ZM62.12,47H45.17c-12.61,0-20.45,7.67-20.46,20.25Q24.55,205.63,24.47,344c0,11.57,8,19.45,19.62,19.5,9.5,0,19,0,28.5,0q89.26,0,178.51,0c6.07,0,11.32-1.58,15.55-6.05s5.13-9.77,5.14-15.58q.06-132.93.2-265.86c0-3.62.15-7.26,0-10.87-.43-8-4.28-13.91-11.77-16.72-8.28-3.11-16.93-.83-25.46-1.55.74,15.53-9.44,23.1-23.4,22.78-27.49-.64-55-.19-82.5-.19-15.88,0-31.75.06-47.63,0-10.56-.06-18.44-7.69-19.06-18.24C62.06,50,62.12,48.74,62.12,47Zm22.58-.23H211.82v-22H84.7Z"/><path class="cls-1" d="M192.08,302c-12.85,0-25.71,0-38.57,0-7.53,0-12.72-4.62-12.73-11.24s5.2-11.24,12.73-11.24q38.76,0,77.51,0c7.54,0,12.59,4.67,12.49,11.42C243.41,297.51,238.4,302,231,302,218.05,302,205.07,302,192.08,302Z"/><path class="cls-1" d="M191.7,152c-12.74,0-25.47,0-38.21,0-7.53,0-12.72-4.65-12.71-11.27s5.22-11.21,12.77-11.21q38.4,0,76.8,0c7.61,0,12.79,4.48,12.91,11.09s-5.19,11.4-13,11.41Z"/><path class="cls-1" d="M192.24,204.5q19.11,0,38.21,0c7.56,0,12.77,4.58,12.81,11.18s-5.2,11.3-12.69,11.3q-38.59,0-77.18,0c-7.48,0-12.69-4.76-12.61-11.37s5.23-11.1,12.49-11.11C166.26,204.48,179.25,204.5,192.24,204.5Z"/><path class="cls-1" d="M77.89,217.19c8.89-8.91,17.2-17.19,25.44-25.53,2.6-2.63,5.58-4.26,9.3-4a10.68,10.68,0,0,1,9.7,6.58c1.92,4.29,1.44,8.59-1.77,11.87q-17.27,17.7-35,35a10.23,10.23,0,0,1-14.34.26c-5.46-4.93-10.71-10.14-15.67-15.57a10.91,10.91,0,0,1,.56-15,11.15,11.15,0,0,1,15.28-.62C73.66,212.09,75.48,214.53,77.89,217.19Z"/><path class="cls-1" d="M78,292.15c9-9.09,17.47-17.6,25.94-26.07a10.91,10.91,0,0,1,11.71-2.88A11.21,11.21,0,0,1,120,281.77C108.85,293,97.67,304.29,86.36,315.41c-4.88,4.79-11.14,4.81-16.11.14-4.82-4.52-9.5-9.22-14-14a11.21,11.21,0,0,1,15.87-15.84C74.08,287.56,75.8,289.72,78,292.15Z"/><path class="cls-1" d="M78.45,137.37A52.52,52.52,0,0,1,82.37,132Q93,121.17,103.82,110.5c4.76-4.68,11.68-4.81,16.14-.48s4.64,11.33-.07,16.11q-16.56,16.81-33.38,33.39c-5.14,5.07-11.44,5-16.63,0Q63,152.85,56.36,146c-4.6-4.77-4.56-11.73-.06-16.12s11.1-4.32,15.84.21C74.11,132,75.73,134.2,78.45,137.37Z"/></g></g></svg>