<svg xmlns="http://www.w3.org/2000/svg" viewBox="0 0 421.54 422.37"><defs><style>.cls-1,.cls-2{stroke:#000;stroke-miterlimit:10;}.cls-1{stroke-width:5px;}.cls-2{stroke-width:4px;}</style></defs><title>tag</title><g id="Layer_2" data-name="Layer 2"><g id="Layer_1-2" data-name="Layer 1"><path class="cls-1" d="M240.44,2.5c8.48.81,16.95,1.73,25.44,2.39,32.61,2.55,65.26,4.76,97.85,7.58C389.65,14.72,408.25,34.94,410,61c2.32,33.73,5.28,67.41,7.71,101.13.84,11.61,1.6,23.31,1.16,34.91-.38,10-5.47,18.62-12.18,26.07-.73.81-1.47,1.6-2.24,2.37Q314.76,315.23,225,405c-15.5,15.48-37,19.24-56.58,9.68A51.27,51.27,0,0,1,155,405Q86.07,336.42,17.47,267.6C9.86,260,4.88,251,3.21,240.31A15.29,15.29,0,0,0,2.5,238V226.63a16.07,16.07,0,0,0,.71-2.27c1.7-10.85,6.82-19.86,14.53-27.57q89.55-89.5,179-179.07a49.82,49.82,0,0,1,19-12.28c3.29-1.15,6.69-2,10-2.94Zm-5.63,26.17c-9-.49-15.24,3.08-20.79,8.63Q125.67,125.82,37.21,214.21c-11.65,11.65-11.62,24.62.06,36.31L171.49,384.77c12.08,12.08,24.78,12.07,36.88,0L379.16,213.92c2.6-2.59,5.22-5.16,7.75-7.81a22.79,22.79,0,0,0,6.68-17.35c-.22-4.88-.62-9.75-1-14.62-2.88-37.22-5.84-74.43-8.64-111.66-1.05-13.94-10.21-23.18-24.28-24.22-19.35-1.44-38.69-3-58-4.5C279,32,256.43,30.32,234.81,28.67Z"/><path class="cls-2" d="M306.93,64.82c26.82-.89,49.52,20.93,50.45,48.5.88,26.32-20.93,49.7-47.15,50.54-27.61.89-51-20.32-51.84-47C257.47,88.47,278.66,65.76,306.93,64.82Zm1.08,73a23.45,23.45,0,1,0-23.57-23.07A23.46,23.46,0,0,0,308,137.8Z"/></g></g></svg>