<svg xmlns="http://www.w3.org/2000/svg" viewBox="0 0 136 146"><defs><style>.cls-1{fill:red;stroke:#fff;stroke-miterlimit:10;}</style></defs><title>tonight</title><g id="Layer_2" data-name="Layer 2"><g id="date"><circle cx="125" cy="25" r="11"/><circle cx="11" cy="135" r="11"/><circle cx="68" cy="135" r="11"/><circle cx="125" cy="83" r="11"/><circle cx="68" cy="83" r="11"/><circle cx="11" cy="83" r="11"/><path d="M82.18,30.2a19.93,19.93,0,0,0,6.61-1.15,1.61,1.61,0,0,1,1.85.34,1.59,1.59,0,0,1,.26,1.82C87.53,39.69,81.4,45,72.43,46.64A24.17,24.17,0,0,1,59.8.17a1.65,1.65,0,0,1,1.86.25A1.64,1.64,0,0,1,62,2.31,21,21,0,0,0,82.18,30.2Z"/><circle class="cls-1" cx="53" cy="39" r="10.5"/></g></g></svg>